<svg version="1.1" id="Layer_1" xmlns="http://www.w3.org/2000/svg" xmlns:xlink="http://www.w3.org/1999/xlink" x="0px" y="0px"
	 width="100%" viewBox="0 0 1396 465" enable-background="new 0 0 1396 465" xml:space="preserve">
<path fill="#FFFFFF" opacity="1.000000" stroke="none" 
	d="
M524.000000,466.000000 
	C349.703735,466.000000 175.407440,466.000000 1.055582,466.000000 
	C1.055582,311.070007 1.055582,156.140015 1.055582,1.000000 
	C329.360168,1.000000 657.720337,1.000000 986.518494,1.341572 
	C954.320679,34.204586 921.684937,66.726028 888.585022,99.710045 
	C878.947083,90.833702 869.414734,82.292732 860.179443,73.441803 
	C855.992554,69.429138 853.733826,64.229103 856.311462,58.497265 
	C858.863953,52.821373 864.036011,50.491192 870.024170,50.030140 
	C877.458191,49.457775 883.751831,52.431301 889.100098,57.185417 
	C893.286438,60.906773 896.929016,65.239876 901.076172,69.576202 
	C909.731750,61.915043 918.536072,54.122189 927.754272,45.963005 
	C924.192993,42.186291 921.015564,38.599903 917.611328,35.243530 
	C901.878113,19.731646 883.418884,12.012016 861.068604,16.004128 
	C830.941101,21.385359 808.368958,53.370949 825.169373,85.256828 
	C833.916260,101.857567 848.420166,113.266273 862.472046,125.379517 
	C853.614380,133.988586 844.744873,142.229980 835.372803,150.938354 
	C838.389709,154.239746 840.192810,156.212860 842.142578,158.491852 
	C843.868469,161.256042 845.202881,163.920502 847.069885,166.136215 
	C854.395569,174.829971 862.188110,182.673920 874.978760,182.060562 
	C883.080750,181.672073 891.753601,176.613663 894.192627,169.197266 
	C896.710571,161.541000 894.396545,154.732132 888.611633,149.086273 
	C884.088196,144.671524 879.705627,140.112106 875.166321,135.714172 
	C874.052246,134.634811 872.570496,133.935059 871.095154,132.748291 
	C869.650208,131.587036 868.367920,130.738281 866.933044,129.559692 
	C865.431152,127.885582 864.081726,126.541321 862.955688,125.495682 
	C872.140930,117.188553 881.102844,108.582825 890.127014,99.917297 
	C891.405090,100.987465 892.654175,102.033340 894.050842,103.385269 
	C897.402954,106.480774 900.607483,109.270241 903.997009,112.352554 
	C907.250916,115.392944 910.408813,118.047997 913.373962,120.903297 
	C930.895569,137.776031 938.125305,168.555954 923.466370,191.142334 
	C913.884644,205.905762 900.359253,213.887009 882.715942,216.175568 
	C874.594604,216.156403 866.750183,216.994476 859.235046,215.785477 
	C845.679993,213.604843 833.974854,207.346359 825.106384,196.443390 
	C822.130920,192.785446 818.964783,189.282700 815.897583,185.372284 
	C814.443176,182.639832 812.977051,180.244064 811.353821,177.591675 
	C810.075073,178.781525 809.210144,179.537201 808.399780,180.347504 
	C714.308167,274.432617 620.218811,368.519928 526.158875,462.636658 
	C525.238708,463.557343 524.710938,464.870239 524.000000,466.000000 
M337.341217,170.157852 
	C329.650513,155.608047 321.959778,141.058243 314.126709,126.239174 
	C315.995728,125.413597 317.956909,124.860550 319.565063,123.781387 
	C325.733795,119.641792 332.591583,116.125931 337.725586,110.928551 
	C349.659271,98.847580 351.398560,83.330185 349.919464,67.236649 
	C347.838013,44.588181 332.689911,27.331530 310.551147,22.907982 
	C286.337250,18.069798 261.789215,20.412493 237.367142,20.178389 
	C237.122375,20.176041 236.874084,20.541449 236.581223,20.771479 
	C236.581223,84.329102 236.581223,147.910645 236.581223,211.748062 
	C248.697571,211.748062 260.587402,211.748062 272.909302,211.748062 
	C272.909302,184.426193 272.909302,157.340988 272.909302,130.255798 
	C273.334595,129.972702 273.759857,129.689621 274.185150,129.406525 
	C275.479584,130.658066 277.199951,131.682892 278.004883,133.195007 
	C291.049744,157.701218 303.944702,182.287231 316.996918,206.789474 
	C318.052521,208.771011 319.958496,211.716766 321.551147,211.770096 
	C333.935883,212.184662 346.340759,211.999100 359.391815,211.999100 
	C351.921509,197.786819 344.825928,184.287415 337.341217,170.157852 
M533.588562,146.900162 
	C517.324524,104.626266 501.060486,62.352371 484.765320,19.997526 
	C473.668213,19.997526 462.843475,20.168282 452.029541,19.901413 
	C448.428101,19.812538 446.897888,21.025761 445.637756,24.322376 
	C424.345520,80.025116 402.913971,135.674606 381.525757,191.340683 
	C378.935364,198.082565 376.417023,204.852142 373.716919,212.001724 
	C385.915436,212.001724 397.405334,212.112930 408.886841,211.853134 
	C410.237854,211.822571 412.178894,210.015594 412.768127,208.587250 
	C417.392700,197.377380 421.837006,186.090378 426.136383,174.751114 
	C427.157593,172.057861 428.359375,170.901215 431.457245,170.921082 
	C454.776794,171.070480 478.098114,171.062790 501.417786,170.925095 
	C504.281464,170.908173 505.468262,171.870590 506.415833,174.434830 
	C510.620605,185.813156 514.987732,197.132584 519.427368,208.421692 
	C519.958313,209.771866 521.270752,211.814819 522.254883,211.834427 
	C534.142517,212.071350 546.036438,211.987900 558.571106,211.987900 
	C550.160706,190.024872 542.038879,168.815628 533.588562,146.900162 
M18.041027,136.427567 
	C26.288237,176.730499 49.887028,203.700073 89.814072,213.549088 
	C132.690079,224.125534 170.279114,212.917313 201.532349,179.269760 
	C192.759399,171.463150 183.988571,163.658447 175.090866,155.740829 
	C173.563431,157.143555 171.031616,159.545822 168.417984,161.855530 
	C157.004257,171.942062 144.392731,179.481155 128.839966,181.272873 
	C103.363853,184.207809 81.227180,177.648010 65.690056,156.585358 
	C50.000801,135.316498 48.229248,111.310143 58.828541,87.466896 
	C73.965675,53.415707 114.383995,39.970993 148.808258,57.202606 
	C158.913239,62.260818 167.747803,69.857063 177.630539,76.608376 
	C185.083618,69.505051 193.457230,61.524380 201.941101,53.438625 
	C200.523941,51.889820 199.444473,50.627426 198.279755,49.449326 
	C172.733536,23.609900 141.963516,11.602095 105.713051,16.001081 
	C71.989975,20.093370 45.576347,36.501507 28.531593,66.292053 
	C16.190529,87.861572 14.438417,111.394783 18.041027,136.427567 
M587.349854,45.499901 
	C587.349854,100.920616 587.349854,156.341339 587.349854,211.687683 
	C599.751526,211.687683 611.495483,211.687683 623.779297,211.687683 
	C623.779297,183.004166 623.779297,154.635391 623.779297,125.912827 
	C643.587891,125.912827 662.852600,125.912827 682.309937,125.912827 
	C682.309937,114.138733 682.309937,102.728951 682.309937,90.835831 
	C662.617432,90.835831 643.203735,90.835831 623.791626,90.835831 
	C623.791626,78.730766 623.791626,67.111465 623.791626,54.980953 
	C643.379211,54.980953 662.777405,54.980953 682.279114,54.980953 
	C682.279114,43.058571 682.279114,31.651747 682.279114,20.296974 
	C650.553650,20.296974 619.144104,20.296974 587.349976,20.296974 
	C587.349976,28.563749 587.349976,36.531826 587.349854,45.499901 
M767.033813,130.500000 
	C767.033813,105.426109 767.033813,80.352219 767.033813,54.797913 
	C779.056152,54.797913 790.454529,54.797913 801.657288,54.797913 
	C801.657288,42.922577 801.657288,31.535557 801.657288,20.397400 
	C766.243103,20.397400 731.206360,20.397400 696.299622,20.397400 
	C696.299622,32.063061 696.299622,43.328648 696.299622,55.078812 
	C707.607117,55.078812 718.671265,55.078812 730.167480,55.078812 
	C730.167480,107.596031 730.167480,159.624863 730.167480,211.684265 
	C742.671997,211.684265 754.727051,211.684265 767.033813,211.684265 
	C767.033813,184.745331 767.033813,158.122665 767.033813,130.500000 
z"/>
<path fill="#F8476D" opacity="1.000000" stroke="none" 
	d="
M883.141296,216.110107 
	C900.359253,213.887009 913.884644,205.905762 923.466370,191.142334 
	C938.125305,168.555954 930.895569,137.776031 913.373962,120.903297 
	C910.408813,118.047997 907.250916,115.392944 904.132446,112.026703 
	C919.515747,103.295029 934.508545,94.166267 950.461609,87.253807 
	C1004.856262,63.684593 1061.800903,53.065166 1121.091675,57.037086 
	C1138.944824,58.233086 1156.859863,60.258026 1174.429443,63.580822 
	C1214.772949,71.210678 1252.758057,85.675781 1288.363525,106.176582 
	C1323.248169,126.262444 1354.250488,151.187988 1381.055176,181.274094 
	C1386.341675,187.208023 1391.683716,193.092606 1397.000000,198.999985 
	C1397.000000,287.926788 1397.000000,376.853546 1397.000000,466.000000 
	C1308.979248,466.000000 1220.958252,466.000000 1132.343872,465.690430 
	C1127.894775,461.464935 1124.051025,457.537323 1120.181396,453.635162 
	C1104.821167,438.145233 1089.452759,422.663330 1074.545898,407.112793 
	C1095.828125,407.031982 1116.653198,407.123810 1137.474609,406.898041 
	C1141.017944,406.859619 1142.322876,408.173737 1143.438843,411.215912 
	C1147.501465,422.290985 1151.756470,433.298279 1156.155518,444.244019 
	C1156.759399,445.746857 1158.561523,447.802704 1159.851440,447.833740 
	C1171.464478,448.112976 1183.087158,447.996887 1195.465698,447.996887 
	C1170.727173,383.669495 1146.230957,319.972198 1121.629883,256.002350 
	C1109.912842,256.002350 1098.264526,255.907898 1086.622803,256.140228 
	C1085.380981,256.165009 1083.616943,257.860504 1083.051636,259.188141 
	C1080.447876,265.303162 1078.180054,271.561340 1075.797729,277.770416 
	C1063.767822,309.123322 1051.739868,340.476959 1039.387939,371.806549 
	C1037.676880,370.638672 1036.184448,369.599335 1034.916748,368.334747 
	C1015.956604,349.420654 997.036499,330.466400 978.066833,311.561798 
	C976.693848,310.193420 975.011902,309.135040 973.338135,307.534058 
	C970.262329,290.144348 967.322083,273.153107 964.353760,255.999924 
	C953.265686,255.999924 942.606812,256.120819 931.953735,255.924805 
	C928.837585,255.867462 928.547607,257.872620 927.524658,259.867981 
	C912.507019,245.274597 897.824158,230.692352 883.141296,216.110107 
M1260.690796,436.474731 
	C1260.690796,399.144104 1260.690796,361.813477 1260.690796,324.482849 
	C1262.290894,325.115265 1262.907227,325.856262 1263.431641,326.657532 
	C1289.042725,365.792755 1314.633545,404.941223 1340.295166,444.043182 
	C1341.305420,445.582520 1342.951904,447.777161 1344.354004,447.816528 
	C1355.437866,448.127930 1366.534424,447.989655 1377.530640,447.989655 
	C1377.530640,383.598419 1377.530640,319.896149 1377.530640,256.248169 
	C1365.338989,256.248169 1353.558838,256.248169 1341.057129,256.248169 
	C1341.057129,297.748169 1341.057129,339.002838 1341.057129,381.409119 
	C1339.765991,379.644775 1339.250000,379.003967 1338.802246,378.318726 
	C1314.852173,341.671600 1290.487549,305.284058 1267.251221,268.189728 
	C1261.249634,258.608826 1255.041016,254.310883 1243.941040,255.834747 
	C1237.477051,256.722168 1230.791748,255.996292 1224.296143,255.996292 
	C1224.296143,320.382782 1224.296143,383.967102 1224.296143,447.681152 
	C1236.471558,447.681152 1248.358276,447.681152 1260.690430,447.681152 
	C1260.690430,444.068878 1260.690430,440.766510 1260.690796,436.474731 
z"/>
<path fill="#EF7CB3" opacity="1.000000" stroke="none" 
	d="
M973.473572,307.932526 
	C975.011902,309.135040 976.693848,310.193420 978.066833,311.561798 
	C997.036499,330.466400 1015.956604,349.420654 1034.916748,368.334747 
	C1036.184448,369.599335 1037.676880,370.638672 1039.310303,372.159607 
	C1029.929077,397.466339 1020.302185,422.396271 1010.416016,447.997833 
	C1023.067444,447.997833 1034.522461,448.095398 1045.970337,447.858276 
	C1047.218750,447.832428 1049.005615,446.117554 1049.561523,444.778717 
	C1053.632690,434.974884 1057.434692,425.059662 1061.358398,415.194244 
	C1064.758179,406.646240 1064.779663,406.654785 1074.087402,407.178406 
	C1089.452759,422.663330 1104.821167,438.145233 1120.181396,453.635162 
	C1124.051025,457.537323 1127.894775,461.464935 1131.875244,465.690430 
	C996.312439,466.000000 860.624878,466.000000 724.412231,465.578003 
	C723.639587,463.512573 723.239258,461.875793 723.167114,460.224609 
	C721.886230,430.928986 722.392639,401.696472 727.263977,372.705994 
	C735.328064,324.714722 751.683105,279.741150 777.066284,238.154633 
	C788.436768,219.525940 800.875854,201.658325 815.885803,185.709000 
	C818.964783,189.282700 822.130920,192.785446 825.106384,196.443390 
	C833.974854,207.346359 845.679993,213.604843 859.235046,215.785477 
	C866.750183,216.994476 874.594604,216.156403 882.715942,216.175568 
	C897.824158,230.692352 912.507019,245.274597 927.485229,260.240784 
	C913.412720,303.221924 899.044861,345.819122 884.275330,389.607391 
	C883.236450,386.748474 882.583008,385.088013 882.026062,383.395813 
	C876.671326,367.126556 871.367493,350.840363 865.981384,334.581512 
	C857.768188,309.788361 849.534363,285.001862 841.180115,260.256073 
	C840.638611,258.652161 839.027832,256.232788 837.858459,256.200195 
	C826.752014,255.890549 815.633484,256.015625 804.300781,256.015625 
	C793.230164,320.189301 782.255554,383.806793 771.226440,447.740173 
	C783.190674,447.740173 794.784668,447.740173 806.807373,447.740173 
	C813.699280,408.012726 820.569946,368.407593 827.440613,328.802460 
	C828.937500,330.310852 829.513916,331.966034 830.067505,333.628906 
	C842.255981,370.242615 854.491333,406.840942 866.547058,443.498383 
	C867.671814,446.918488 869.139587,448.233887 872.813721,448.091187 
	C880.467346,447.793915 888.149109,447.789368 895.802002,448.095276 
	C899.351624,448.237152 900.719604,446.851044 901.754822,443.701202 
	C907.416077,426.476654 913.290283,409.322174 919.060364,392.133209 
	C926.146729,371.022980 933.202698,349.902466 940.271729,328.786377 
	C940.599915,328.776520 940.928101,328.766663 941.256226,328.756805 
	C947.986389,368.400146 954.716492,408.043488 961.456726,447.746094 
	C973.356506,447.746094 984.788818,447.746094 996.618835,447.746094 
	C991.876526,419.266968 987.170105,391.102448 982.501343,362.931702 
	C979.463745,344.603302 976.480957,326.265900 973.473572,307.932526 
z"/>
<path fill="#6A5EAF" opacity="1.000000" stroke="none" 
	d="
M1397.000000,198.531326 
	C1391.683716,193.092606 1386.341675,187.208023 1381.055176,181.274094 
	C1354.250488,151.187988 1323.248169,126.262444 1288.363525,106.176582 
	C1252.758057,85.675781 1214.772949,71.210678 1174.429443,63.580822 
	C1156.859863,60.258026 1138.944824,58.233086 1121.091675,57.037086 
	C1061.800903,53.065166 1004.856262,63.684593 950.461609,87.253807 
	C934.508545,94.166267 919.515747,103.295029 903.947388,111.733856 
	C900.607483,109.270241 897.402954,106.480774 894.343506,103.212830 
	C927.342773,69.928986 960.202393,37.128952 993.022583,4.289520 
	C993.900208,3.411391 994.350464,2.106094 995.000000,1.000001 
	C1128.902222,1.000000 1262.804443,1.000000 1397.000000,1.000000 
	C1397.000000,66.687271 1397.000000,132.374969 1397.000000,198.531326 
z"/>
<path fill="#381977" opacity="1.000000" stroke="none" 
	d="
M815.897583,185.372284 
	C800.875854,201.658325 788.436768,219.525940 777.066284,238.154633 
	C751.683105,279.741150 735.328064,324.714722 727.263977,372.705994 
	C722.392639,401.696472 721.886230,430.928986 723.167114,460.224609 
	C723.239258,461.875793 723.639587,463.512573 723.943604,465.578003 
	C657.645752,466.000000 591.291565,466.000000 524.468628,466.000000 
	C524.710938,464.870239 525.238708,463.557343 526.158875,462.636658 
	C620.218811,368.519928 714.308167,274.432617 808.399780,180.347504 
	C809.210144,179.537201 810.075073,178.781525 811.353821,177.591675 
	C812.977051,180.244064 814.443176,182.639832 815.897583,185.372284 
z"/>
<path fill="#391B79" opacity="1.000000" stroke="none" 
	d="
M994.555847,1.000001 
	C994.350464,2.106094 993.900208,3.411391 993.022583,4.289520 
	C960.202393,37.128952 927.342773,69.928986 894.195923,102.906784 
	C892.654175,102.033340 891.405090,100.987465 890.127014,99.917297 
	C881.102844,108.582825 872.140930,117.188553 862.924255,125.448586 
	C862.669434,125.102882 862.460327,125.011826 862.460327,125.011826 
	C848.420166,113.266273 833.916260,101.857567 825.169373,85.256828 
	C808.368958,53.370949 830.941101,21.385359 861.068604,16.004128 
	C883.418884,12.012016 901.878113,19.731646 917.611328,35.243530 
	C921.015564,38.599903 924.192993,42.186291 927.754272,45.963005 
	C918.536072,54.122189 909.731750,61.915043 901.076172,69.576202 
	C896.929016,65.239876 893.286438,60.906773 889.100098,57.185417 
	C883.751831,52.431301 877.458191,49.457775 870.024170,50.030140 
	C864.036011,50.491192 858.863953,52.821373 856.311462,58.497265 
	C853.733826,64.229103 855.992554,69.429138 860.179443,73.441803 
	C869.414734,82.292732 878.947083,90.833702 888.585022,99.710045 
	C921.684937,66.726028 954.320679,34.204586 986.978210,1.341572 
	C989.370544,1.000000 991.741150,1.000000 994.555847,1.000001 
z"/>
<path fill="#391A78" opacity="1.000000" stroke="none" 
	d="
M337.535767,170.472931 
	C344.825928,184.287415 351.921509,197.786819 359.391815,211.999100 
	C346.340759,211.999100 333.935883,212.184662 321.551147,211.770096 
	C319.958496,211.716766 318.052521,208.771011 316.996918,206.789474 
	C303.944702,182.287231 291.049744,157.701218 278.004883,133.195007 
	C277.199951,131.682892 275.479584,130.658066 274.185150,129.406525 
	C273.759857,129.689621 273.334595,129.972702 272.909302,130.255798 
	C272.909302,157.340988 272.909302,184.426193 272.909302,211.748062 
	C260.587402,211.748062 248.697571,211.748062 236.581223,211.748062 
	C236.581223,147.910645 236.581223,84.329102 236.581223,20.771479 
	C236.874084,20.541449 237.122375,20.176041 237.367142,20.178389 
	C261.789215,20.412493 286.337250,18.069798 310.551147,22.907982 
	C332.689911,27.331530 347.838013,44.588181 349.919464,67.236649 
	C351.398560,83.330185 349.659271,98.847580 337.725586,110.928551 
	C332.591583,116.125931 325.733795,119.641792 319.565063,123.781387 
	C317.956909,124.860550 315.995728,125.413597 314.126709,126.239174 
	C321.959778,141.058243 329.650513,155.608047 337.535767,170.472931 
M272.918884,86.458412 
	C272.918884,89.217064 272.918884,91.975716 272.918884,95.753784 
	C282.832123,94.898453 292.157745,94.777924 301.204651,93.128525 
	C311.039520,91.335449 314.922302,85.685135 315.045532,75.925919 
	C315.171906,65.917725 310.450439,58.353924 301.255493,56.724079 
	C292.078918,55.097500 282.609833,55.120918 272.918884,54.394722 
	C272.918884,65.560333 272.918884,75.513489 272.918884,86.458412 
z"/>
<path fill="#381978" opacity="1.000000" stroke="none" 
	d="
M533.752808,147.253265 
	C542.038879,168.815628 550.160706,190.024872 558.571106,211.987900 
	C546.036438,211.987900 534.142517,212.071350 522.254883,211.834427 
	C521.270752,211.814819 519.958313,209.771866 519.427368,208.421692 
	C514.987732,197.132584 510.620605,185.813156 506.415833,174.434830 
	C505.468262,171.870590 504.281464,170.908173 501.417786,170.925095 
	C478.098114,171.062790 454.776794,171.070480 431.457245,170.921082 
	C428.359375,170.901215 427.157593,172.057861 426.136383,174.751114 
	C421.837006,186.090378 417.392700,197.377380 412.768127,208.587250 
	C412.178894,210.015594 410.237854,211.822571 408.886841,211.853134 
	C397.405334,212.112930 385.915436,212.001724 373.716919,212.001724 
	C376.417023,204.852142 378.935364,198.082565 381.525757,191.340683 
	C402.913971,135.674606 424.345520,80.025116 445.637756,24.322376 
	C446.897888,21.025761 448.428101,19.812538 452.029541,19.901413 
	C462.843475,20.168282 473.668213,19.997526 484.765320,19.997526 
	C501.060486,62.352371 517.324524,104.626266 533.752808,147.253265 
M473.162140,88.329521 
	C470.993042,82.743065 468.823944,77.156609 466.259827,70.552818 
	C457.604797,92.922371 449.347168,114.264801 441.032593,135.754425 
	C458.127563,135.754425 474.510742,135.754425 491.519470,135.754425 
	C485.384308,119.905014 479.413086,104.479111 473.162140,88.329521 
z"/>
<path fill="#381978" opacity="1.000000" stroke="none" 
	d="
M17.994984,135.995361 
	C14.438417,111.394783 16.190529,87.861572 28.531593,66.292053 
	C45.576347,36.501507 71.989975,20.093370 105.713051,16.001081 
	C141.963516,11.602095 172.733536,23.609900 198.279755,49.449326 
	C199.444473,50.627426 200.523941,51.889820 201.941101,53.438625 
	C193.457230,61.524380 185.083618,69.505051 177.630539,76.608376 
	C167.747803,69.857063 158.913239,62.260818 148.808258,57.202606 
	C114.383995,39.970993 73.965675,53.415707 58.828541,87.466896 
	C48.229248,111.310143 50.000801,135.316498 65.690056,156.585358 
	C81.227180,177.648010 103.363853,184.207809 128.839966,181.272873 
	C144.392731,179.481155 157.004257,171.942062 168.417984,161.855530 
	C171.031616,159.545822 173.563431,157.143555 175.090866,155.740829 
	C183.988571,163.658447 192.759399,171.463150 201.532349,179.269760 
	C170.279114,212.917313 132.690079,224.125534 89.814072,213.549088 
	C49.887028,203.700073 26.288237,176.730499 17.994984,135.995361 
z"/>
<path fill="#3A1C79" opacity="1.000000" stroke="none" 
	d="
M587.349915,44.999901 
	C587.349976,36.531826 587.349976,28.563749 587.349976,20.296974 
	C619.144104,20.296974 650.553650,20.296974 682.279114,20.296974 
	C682.279114,31.651747 682.279114,43.058571 682.279114,54.980953 
	C662.777405,54.980953 643.379211,54.980953 623.791626,54.980953 
	C623.791626,67.111465 623.791626,78.730766 623.791626,90.835831 
	C643.203735,90.835831 662.617432,90.835831 682.309937,90.835831 
	C682.309937,102.728951 682.309937,114.138733 682.309937,125.912827 
	C662.852600,125.912827 643.587891,125.912827 623.779297,125.912827 
	C623.779297,154.635391 623.779297,183.004166 623.779297,211.687683 
	C611.495483,211.687683 599.751526,211.687683 587.349854,211.687683 
	C587.349854,156.341339 587.349854,100.920616 587.349915,44.999901 
z"/>
<path fill="#381878" opacity="1.000000" stroke="none" 
	d="
M767.033813,131.000000 
	C767.033813,158.122665 767.033813,184.745331 767.033813,211.684265 
	C754.727051,211.684265 742.671997,211.684265 730.167480,211.684265 
	C730.167480,159.624863 730.167480,107.596031 730.167480,55.078812 
	C718.671265,55.078812 707.607117,55.078812 696.299622,55.078812 
	C696.299622,43.328648 696.299622,32.063061 696.299622,20.397400 
	C731.206360,20.397400 766.243103,20.397400 801.657288,20.397400 
	C801.657288,31.535557 801.657288,42.922577 801.657288,54.797913 
	C790.454529,54.797913 779.056152,54.797913 767.033813,54.797913 
	C767.033813,80.352219 767.033813,105.426109 767.033813,131.000000 
z"/>
<path fill="#F7476D" opacity="1.000000" stroke="none" 
	d="
M871.257751,133.060760 
	C872.570496,133.935059 874.052246,134.634811 875.166321,135.714172 
	C879.705627,140.112106 884.088196,144.671524 888.611633,149.086273 
	C894.396545,154.732132 896.710571,161.541000 894.192627,169.197266 
	C891.753601,176.613663 883.080750,181.672073 874.978760,182.060562 
	C862.188110,182.673920 854.395569,174.829971 847.069885,166.136215 
	C845.202881,163.920502 843.868469,161.256042 842.419922,158.296600 
	C845.699097,154.832535 848.847534,151.869598 852.304504,148.790955 
	C858.827881,143.470413 865.042847,138.265594 871.257751,133.060760 
z"/>
<path fill="#3F227C" opacity="1.000000" stroke="none" 
	d="
M851.996033,148.906662 
	C848.847534,151.869598 845.699097,154.832535 842.273254,157.990723 
	C840.192810,156.212860 838.389709,154.239746 835.372803,150.938354 
	C844.744873,142.229980 853.614380,133.988586 862.472046,125.379517 
	C862.460327,125.011826 862.669434,125.102882 862.700928,125.149979 
	C864.081726,126.541321 865.431152,127.885582 866.768066,129.858215 
	C862.201111,135.096863 857.544434,139.613724 853.174072,144.392426 
	C852.245850,145.407394 852.361389,147.376938 851.996033,148.906662 
z"/>
<path fill="#6F5DAD" opacity="1.000000" stroke="none" 
	d="
M852.304504,148.790955 
	C852.361389,147.376938 852.245850,145.407394 853.174072,144.392426 
	C857.544434,139.613724 862.201111,135.096863 866.920593,130.188049 
	C868.367920,130.738281 869.650208,131.587036 871.095154,132.748276 
	C865.042847,138.265594 858.827881,143.470413 852.304504,148.790955 
z"/>
<path fill="#FFFEFE" opacity="1.000000" stroke="none" 
	d="
M973.338135,307.534058 
	C976.480957,326.265900 979.463745,344.603302 982.501343,362.931702 
	C987.170105,391.102448 991.876526,419.266968 996.618835,447.746094 
	C984.788818,447.746094 973.356506,447.746094 961.456726,447.746094 
	C954.716492,408.043488 947.986389,368.400146 941.256226,328.756805 
	C940.928101,328.766663 940.599915,328.776520 940.271729,328.786377 
	C933.202698,349.902466 926.146729,371.022980 919.060364,392.133209 
	C913.290283,409.322174 907.416077,426.476654 901.754822,443.701202 
	C900.719604,446.851044 899.351624,448.237152 895.802002,448.095276 
	C888.149109,447.789368 880.467346,447.793915 872.813721,448.091187 
	C869.139587,448.233887 867.671814,446.918488 866.547058,443.498383 
	C854.491333,406.840942 842.255981,370.242615 830.067505,333.628906 
	C829.513916,331.966034 828.937500,330.310852 827.440613,328.802460 
	C820.569946,368.407593 813.699280,408.012726 806.807373,447.740173 
	C794.784668,447.740173 783.190674,447.740173 771.226440,447.740173 
	C782.255554,383.806793 793.230164,320.189301 804.300781,256.015625 
	C815.633484,256.015625 826.752014,255.890549 837.858459,256.200195 
	C839.027832,256.232788 840.638611,258.652161 841.180115,260.256073 
	C849.534363,285.001862 857.768188,309.788361 865.981384,334.581512 
	C871.367493,350.840363 876.671326,367.126556 882.026062,383.395813 
	C882.583008,385.088013 883.236450,386.748474 884.275330,389.607391 
	C899.044861,345.819122 913.412720,303.221924 927.820007,260.251892 
	C928.547607,257.872620 928.837585,255.867462 931.953735,255.924805 
	C942.606812,256.120819 953.265686,255.999924 964.353760,255.999924 
	C967.322083,273.153107 970.262329,290.144348 973.338135,307.534058 
z"/>
<path fill="#FFFDFD" opacity="1.000000" stroke="none" 
	d="
M1260.690674,436.969452 
	C1260.690430,440.766510 1260.690430,444.068878 1260.690430,447.681152 
	C1248.358276,447.681152 1236.471558,447.681152 1224.296143,447.681152 
	C1224.296143,383.967102 1224.296143,320.382782 1224.296143,255.996292 
	C1230.791748,255.996292 1237.477051,256.722168 1243.941040,255.834747 
	C1255.041016,254.310883 1261.249634,258.608826 1267.251221,268.189728 
	C1290.487549,305.284058 1314.852173,341.671600 1338.802246,378.318726 
	C1339.250000,379.003967 1339.765991,379.644775 1341.057129,381.409119 
	C1341.057129,339.002838 1341.057129,297.748169 1341.057129,256.248169 
	C1353.558838,256.248169 1365.338989,256.248169 1377.530640,256.248169 
	C1377.530640,319.896149 1377.530640,383.598419 1377.530640,447.989655 
	C1366.534424,447.989655 1355.437866,448.127930 1344.354004,447.816528 
	C1342.951904,447.777161 1341.305420,445.582520 1340.295166,444.043182 
	C1314.633545,404.941223 1289.042725,365.792755 1263.431641,326.657532 
	C1262.907227,325.856262 1262.290894,325.115265 1260.690796,324.482849 
	C1260.690796,361.813477 1260.690796,399.144104 1260.690674,436.969452 
z"/>
<path fill="#FFFEFE" opacity="1.000000" stroke="none" 
	d="
M1074.545898,407.112793 
	C1064.779663,406.654785 1064.758179,406.646240 1061.358398,415.194244 
	C1057.434692,425.059662 1053.632690,434.974884 1049.561523,444.778717 
	C1049.005615,446.117554 1047.218750,447.832428 1045.970337,447.858276 
	C1034.522461,448.095398 1023.067444,447.997833 1010.416016,447.997833 
	C1020.302185,422.396271 1029.929077,397.466339 1039.633545,372.183350 
	C1051.739868,340.476959 1063.767822,309.123322 1075.797729,277.770416 
	C1078.180054,271.561340 1080.447876,265.303162 1083.051636,259.188141 
	C1083.616943,257.860504 1085.380981,256.165009 1086.622803,256.140228 
	C1098.264526,255.907898 1109.912842,256.002350 1121.629883,256.002350 
	C1146.230957,319.972198 1170.727173,383.669495 1195.465698,447.996887 
	C1183.087158,447.996887 1171.464478,448.112976 1159.851440,447.833740 
	C1158.561523,447.802704 1156.759399,445.746857 1156.155518,444.244019 
	C1151.756470,433.298279 1147.501465,422.290985 1143.438843,411.215912 
	C1142.322876,408.173737 1141.017944,406.859619 1137.474609,406.898041 
	C1116.653198,407.123810 1095.828125,407.031982 1074.545898,407.112793 
M1089.397705,341.913971 
	C1085.594238,351.801666 1081.790771,361.689392 1077.925537,371.737976 
	C1094.867432,371.737976 1111.279053,371.737976 1128.288574,371.737976 
	C1119.921509,350.111023 1111.722046,328.917542 1103.092773,306.612823 
	C1098.326294,318.939362 1094.020874,330.073425 1089.397705,341.913971 
z"/>
<path fill="#FEFEFD" opacity="1.000000" stroke="none" 
	d="
M272.918884,85.962532 
	C272.918884,75.513489 272.918884,65.560333 272.918884,54.394722 
	C282.609833,55.120918 292.078918,55.097500 301.255493,56.724079 
	C310.450439,58.353924 315.171906,65.917725 315.045532,75.925919 
	C314.922302,85.685135 311.039520,91.335449 301.204651,93.128525 
	C292.157745,94.777924 282.832123,94.898453 272.918884,95.753784 
	C272.918884,91.975716 272.918884,89.217064 272.918884,85.962532 
z"/>
<path fill="#FDFDFD" opacity="1.000000" stroke="none" 
	d="
M473.302002,88.691368 
	C479.413086,104.479111 485.384308,119.905014 491.519470,135.754425 
	C474.510742,135.754425 458.127563,135.754425 441.032593,135.754425 
	C449.347168,114.264801 457.604797,92.922371 466.259827,70.552818 
	C468.823944,77.156609 470.993042,82.743065 473.302002,88.691368 
z"/>
<path fill="#F8496F" opacity="1.000000" stroke="none" 
	d="
M1089.556641,341.560730 
	C1094.020874,330.073425 1098.326294,318.939362 1103.092773,306.612823 
	C1111.722046,328.917542 1119.921509,350.111023 1128.288574,371.737976 
	C1111.279053,371.737976 1094.867432,371.737976 1077.925537,371.737976 
	C1081.790771,361.689392 1085.594238,351.801666 1089.556641,341.560730 
z"/>
</svg>